<svg xmlns="http://www.w3.org/2000/svg" width="195.469" height="26"><path d="M35.658 25.2h3.76v-5.56h3.02a5.548 5.548 0 0 0 3.76-1.18 4.385 4.385 0 0 0 .02-6.33 5.568 5.568 0 0 0-3.78-1.17h-6.78V25.2zm3.76-8.36V13.8h2.52a2.661 2.661 0 0 1 1.61.39 1.358 1.358 0 0 1 .51 1.15q0 1.5-2.12 1.5h-2.52zm19.38-.34h-5.76v-5.54h-3.68V25.2h3.68v-5.76h5.76v5.76h3.68V10.958H58.8V16.5zm13.02 8.88a7.714 7.714 0 0 0 3.79-.89 6 6 0 0 0 2.47-2.55 8.327 8.327 0 0 0 .86-3.88 8.205 8.205 0 0 0-.86-3.86 6.034 6.034 0 0 0-2.47-2.53 8.515 8.515 0 0 0-7.58 0 6.146 6.146 0 0 0-2.49 2.53 8.044 8.044 0 0 0-.88 3.86 8.243 8.243 0 0 0 .87 3.88 6.042 6.042 0 0 0 2.49 2.55 7.768 7.768 0 0 0 3.8.89zm0-2.86a3.017 3.017 0 0 1-2.5-1.13 5.259 5.259 0 0 1-.9-3.33 5.18 5.18 0 0 1 .9-3.3 3.351 3.351 0 0 1 5.01.01 5.149 5.149 0 0 1 .91 3.29 5.229 5.229 0 0 1-.91 3.32 3.036 3.036 0 0 1-2.51 1.14zm15.54 2.68V14h4.24v-3.04h-12.28V14h4.24v11.2h3.8zm11.76.18a7.714 7.714 0 0 0 3.79-.89 6 6 0 0 0 2.47-2.55 8.327 8.327 0 0 0 .86-3.88 8.205 8.205 0 0 0-.86-3.86 6.034 6.034 0 0 0-2.47-2.53 8.515 8.515 0 0 0-7.58 0 6.146 6.146 0 0 0-2.49 2.53 8.044 8.044 0 0 0-.88 3.86 8.243 8.243 0 0 0 .87 3.88 6.042 6.042 0 0 0 2.49 2.55 7.768 7.768 0 0 0 3.8.89zm0-2.86a3.017 3.017 0 0 1-2.5-1.13 5.259 5.259 0 0 1-.9-3.33 5.18 5.18 0 0 1 .9-3.3 3.351 3.351 0 0 1 5.01.01 5.149 5.149 0 0 1 .91 3.29 5.229 5.229 0 0 1-.91 3.32 3.036 3.036 0 0 1-2.51 1.14zm16.1-5.36v2.54h2.48v2.64a9.014 9.014 0 0 1-1.88.2 3.781 3.781 0 0 1-2.99-1.1 5 5 0 0 1-.97-3.38 4.884 4.884 0 0 1 .93-3.27 3.55 3.55 0 0 1 2.83-1.07 6.4 6.4 0 0 1 1.95.29 7.879 7.879 0 0 1 1.89.93l1.18-2.66a6.3 6.3 0 0 0-2.23-1.1 10.343 10.343 0 0 0-2.91-.4 8.255 8.255 0 0 0-3.92.89 6.279 6.279 0 0 0-2.6 2.54 7.77 7.77 0 0 0-.92 3.85 7.9 7.9 0 0 0 .92 3.91 6.175 6.175 0 0 0 2.63 2.53 8.694 8.694 0 0 0 4.03.88 14.812 14.812 0 0 0 2.89-.28 11.536 11.536 0 0 0 2.55-.8v-7.14h-5.86zm18.939 3.8a3.008 3.008 0 0 0-.76-1.18 2.225 2.225 0 0 0-1.08-.56 3.988 3.988 0 0 0 2.94-3.98 3.939 3.939 0 0 0-1.3-3.17 5.843 5.843 0 0 0-3.88-1.11h-6.62V25.2h3.7v-5.54h1.36a1.426 1.426 0 0 1 1.5.8l1.84 4.74h3.98zm-4.68-4.1h-2.36V13.8h2.36a3.216 3.216 0 0 1 1.75.36 1.321 1.321 0 0 1 .53 1.18 1.3 1.3 0 0 1-.54 1.15 3.152 3.152 0 0 1-1.74.37zm22.6 8.34l-6.68-14.24h-2.96l-6.66 14.24h3.76l1.26-2.94h6.32l1.26 2.94h3.7zm-8.12-10.26l1.94 4.5h-3.88zM152.9 25.2h3.76v-5.56h3.02a5.547 5.547 0 0 0 3.76-1.18 4.385 4.385 0 0 0 .02-6.33 5.564 5.564 0 0 0-3.78-1.17h-6.78V25.2zm3.76-8.36V13.8h2.52a2.659 2.659 0 0 1 1.61.39 1.358 1.358 0 0 1 .51 1.15q0 1.5-2.12 1.5h-2.52zm19.38-.34h-5.76v-5.54h-3.68V25.2h3.68v-5.76h5.76v5.76h3.68V10.958h-3.68V16.5zm15.16-5.54l-3.66 5.68-3.6-5.68h-4.24l5.98 8.78v5.46h3.78v-5.44l6.02-8.8h-4.28zM25.458 8.666h-1.625V7.041a.542.542 0 0 0-.541-.542h-2.167a.542.542 0 0 0-.542.542v1.624H9.208a.542.542 0 0 0-.541.542v13.542h-3.25V9.694a4.875 4.875 0 1 0-1.084 0v14.681a.542.542 0 0 0 1.084 0v-.542h3.25v1.625a.541.541 0 0 0 .541.542h16.25a.542.542 0 0 0 .542-.542V9.208a.543.543 0 0 0-.542-.542zM4.875 3.25A1.627 1.627 0 0 0 3.25 4.875a.542.542 0 1 1-1.083 0 2.712 2.712 0 0 1 2.708-2.709.542.542 0 1 1 0 1.083zm17.875 19.5H11.917V11.916H22.75v10.833zm-5.417-1.083A4.333 4.333 0 1 0 13 17.333a4.338 4.338 0 0 0 4.333 4.334zm0-6.5a.542.542 0 1 1 0 1.083 1.085 1.085 0 0 0-1.083 1.084.542.542 0 1 1-1.083 0 2.168 2.168 0 0 1 2.166-2.168z" fill="#fff" fill-rule="evenodd"/></svg>