<svg version="1.1" id="Capa_1" xmlns="http://www.w3.org/2000/svg" xmlns:xlink="http://www.w3.org/1999/xlink" x="0px" y="0px"
	 width="96.124px" height="96.123px" viewBox="0 0 96.124 96.123" style="display:none"
	 xml:space="preserve">
<g  style="fill:#ffffff;" >
	<path d="M72.089,0.02L59.624,0C45.62,0,36.57,9.285,36.57,23.656v10.907H24.037c-1.083,0-1.96,0.878-1.96,1.961v15.803
		c0,1.083,0.878,1.96,1.96,1.96h12.533v39.876c0,1.083,0.877,1.96,1.96,1.96h16.352c1.083,0,1.96-0.878,1.96-1.96V54.287h14.654
		c1.083,0,1.96-0.877,1.96-1.96l0.006-15.803c0-0.52-0.207-1.018-0.574-1.386c-0.367-0.368-0.867-0.575-1.387-0.575H56.842v-9.246
		c0-4.444,1.059-6.7,6.848-6.7l8.397-0.003c1.082,0,1.959-0.878,1.959-1.96V1.98C74.046,0.899,73.17,0.022,72.089,0.02z"/>
</g>
<g style="fill:#ffffff;" >
	<path d="M414.41,24.123C398.333,8.042,378.963,0,356.315,0H82.228C59.58,0,40.21,8.042,24.126,24.123
		C8.045,40.207,0.003,59.576,0.003,82.225v274.084c0,22.647,8.042,42.018,24.123,58.102c16.084,16.084,35.454,24.126,58.102,24.126
		h274.084c22.648,0,42.018-8.042,58.095-24.126c16.084-16.084,24.126-35.454,24.126-58.102V82.225
		C438.532,59.576,430.49,40.207,414.41,24.123z M181.585,262.093c-11.803,11.804-26.075,17.706-42.827,17.706
		c-16.75,0-31.024-5.902-42.825-17.706c-11.799-11.8-17.701-26.073-17.701-42.826c0-16.755,5.898-31.027,17.701-42.827
		c11.798-11.801,26.075-17.703,42.825-17.703c16.751,0,31.023,5.902,42.827,17.703c11.798,11.799,17.699,26.072,17.699,42.827
		C199.284,236.013,193.383,250.293,181.585,262.093z M342.603,262.093c-11.793,11.804-26.07,17.706-42.825,17.706
		c-16.748,0-31.024-5.902-42.831-17.706c-11.793-11.8-17.699-26.073-17.699-42.826c0-16.755,5.906-31.027,17.699-42.827
		c11.807-11.801,26.08-17.703,42.831-17.703c16.748,0,31.025,5.902,42.825,17.703c11.8,11.799,17.706,26.072,17.706,42.827
		C360.309,236.013,354.402,250.293,342.603,262.093z"/>
</g>
<g style="fill:#ffffff;" >
	<path d="M122.406,0H46.654C20.929,0,0,20.93,0,46.655v75.752c0,25.726,20.929,46.655,46.654,46.655h75.752
		c25.727,0,46.656-20.93,46.656-46.655V46.655C169.063,20.93,148.133,0,122.406,0z M154.063,122.407
		c0,17.455-14.201,31.655-31.656,31.655H46.654C29.2,154.063,15,139.862,15,122.407V46.655C15,29.201,29.2,15,46.654,15h75.752
		c17.455,0,31.656,14.201,31.656,31.655V122.407z"/>
	<path d="M84.531,40.97c-24.021,0-43.563,19.542-43.563,43.563c0,24.02,19.542,43.561,43.563,43.561s43.563-19.541,43.563-43.561
		C128.094,60.512,108.552,40.97,84.531,40.97z M84.531,113.093c-15.749,0-28.563-12.812-28.563-28.561
		c0-15.75,12.813-28.563,28.563-28.563s28.563,12.813,28.563,28.563C113.094,100.281,100.28,113.093,84.531,113.093z"/>
	<path d="M129.921,28.251c-2.89,0-5.729,1.17-7.77,3.22c-2.051,2.04-3.23,4.88-3.23,7.78c0,2.891,1.18,5.73,3.23,7.78
		c2.04,2.04,4.88,3.22,7.77,3.22c2.9,0,5.73-1.18,7.78-3.22c2.05-2.05,3.22-4.89,3.22-7.78c0-2.9-1.17-5.74-3.22-7.78
		C135.661,29.421,132.821,28.251,129.921,28.251z"/>
</g>

<g style="fill:#ffffff;" >
  <path  style="fill:#ffffff; fill-rule: evenodd;" d="M251.658,91.2h3.76v-5.56h3.02a5.548,5.548,0,0,0,3.76-1.18,4.385,4.385,0,0,0,.02-6.33,5.568,5.568,0,0,0-3.78-1.17h-6.78V91.2Zm3.76-8.36V79.8h2.52a2.661,2.661,0,0,1,1.61.39,1.358,1.358,0,0,1,.51,1.15q0,1.5-2.12,1.5h-2.52Zm19.38-.34h-5.76v-5.54h-3.68V91.2h3.68v-5.76h5.76V91.2h3.68V76.958H274.8V82.5Zm13.02,8.88a7.714,7.714,0,0,0,3.79-.89,6,6,0,0,0,2.47-2.55,8.327,8.327,0,0,0,.86-3.88,8.205,8.205,0,0,0-.86-3.86,6.034,6.034,0,0,0-2.47-2.53,8.515,8.515,0,0,0-7.58,0,6.146,6.146,0,0,0-2.49,2.53,8.044,8.044,0,0,0-.88,3.86,8.243,8.243,0,0,0,.87,3.88,6.042,6.042,0,0,0,2.49,2.55,7.768,7.768,0,0,0,3.8.89h0Zm0-2.86a3.017,3.017,0,0,1-2.5-1.13,5.259,5.259,0,0,1-.9-3.33,5.18,5.18,0,0,1,.9-3.3,3.351,3.351,0,0,1,5.01.01,5.149,5.149,0,0,1,.91,3.29,5.229,5.229,0,0,1-.91,3.32,3.036,3.036,0,0,1-2.51,1.14h0Zm15.54,2.68V80h4.24v-3.04h-12.28V80h4.24V91.2h3.8Zm11.76,0.18a7.714,7.714,0,0,0,3.79-.89,6,6,0,0,0,2.47-2.55,8.327,8.327,0,0,0,.86-3.88,8.205,8.205,0,0,0-.86-3.86,6.034,6.034,0,0,0-2.47-2.53,8.515,8.515,0,0,0-7.58,0,6.146,6.146,0,0,0-2.49,2.53,8.044,8.044,0,0,0-.88,3.86,8.243,8.243,0,0,0,.87,3.88,6.042,6.042,0,0,0,2.49,2.55,7.768,7.768,0,0,0,3.8.89h0Zm0-2.86a3.017,3.017,0,0,1-2.5-1.13,5.259,5.259,0,0,1-.9-3.33,5.18,5.18,0,0,1,.9-3.3,3.351,3.351,0,0,1,5.01.01,5.149,5.149,0,0,1,.91,3.29,5.229,5.229,0,0,1-.91,3.32,3.036,3.036,0,0,1-2.51,1.14h0Zm16.1-5.36V85.7h2.48v2.64a9.014,9.014,0,0,1-1.88.2,3.781,3.781,0,0,1-2.99-1.1,5,5,0,0,1-.97-3.38,4.884,4.884,0,0,1,.93-3.27,3.55,3.55,0,0,1,2.83-1.07,6.4,6.4,0,0,1,1.95.29,7.879,7.879,0,0,1,1.89.93l1.18-2.66a6.3,6.3,0,0,0-2.23-1.1,10.343,10.343,0,0,0-2.91-.4,8.255,8.255,0,0,0-3.92.89,6.279,6.279,0,0,0-2.6,2.54,7.77,7.77,0,0,0-.92,3.85,7.9,7.9,0,0,0,.92,3.91,6.175,6.175,0,0,0,2.63,2.53,8.694,8.694,0,0,0,4.03.88,14.812,14.812,0,0,0,2.89-.28,11.536,11.536,0,0,0,2.55-.8v-7.14h-5.86Zm18.939,3.8a3.008,3.008,0,0,0-.76-1.18,2.225,2.225,0,0,0-1.08-.56,3.988,3.988,0,0,0,2.94-3.98,3.939,3.939,0,0,0-1.3-3.17,5.843,5.843,0,0,0-3.88-1.11h-6.62V91.2h3.7v-5.54h1.36a1.426,1.426,0,0,1,1.5.8l1.84,4.74h3.98Zm-4.68-4.1h-2.36V79.8h2.36a3.216,3.216,0,0,1,1.75.36,1.321,1.321,0,0,1,.53,1.18,1.3,1.3,0,0,1-.54,1.15,3.152,3.152,0,0,1-1.74.37h0Zm22.6,8.34-6.68-14.24h-2.96l-6.66,14.24h3.76l1.26-2.94h6.32l1.26,2.94h3.7Zm-8.12-10.26,1.94,4.5h-3.88ZM368.9,91.2h3.76v-5.56h3.02a5.547,5.547,0,0,0,3.76-1.18,4.385,4.385,0,0,0,.02-6.33,5.564,5.564,0,0,0-3.78-1.17H368.9V91.2Zm3.76-8.36V79.8h2.52a2.659,2.659,0,0,1,1.61.39,1.358,1.358,0,0,1,.51,1.15q0,1.5-2.12,1.5h-2.52Zm19.38-.34h-5.76v-5.54H382.6V91.2h3.68v-5.76h5.76V91.2h3.68V76.958h-3.68V82.5Zm15.16-5.54-3.66,5.68-3.6-5.68H395.7l5.98,8.78V91.2h3.78v-5.44l6.02-8.8H407.2ZM241.458,74.666h-1.625V73.041a0.542,0.542,0,0,0-.541-0.542h-2.167a0.542,0.542,0,0,0-.542.542v1.624H225.208a0.542,0.542,0,0,0-.541.542V88.749h-3.25V75.694a4.875,4.875,0,1,0-1.084,0V90.375a0.542,0.542,0,0,0,1.084,0V89.833h3.25v1.625a0.541,0.541,0,0,0,.541.542h16.25A0.542,0.542,0,0,0,242,91.458V75.208A0.543,0.543,0,0,0,241.458,74.666Zm-20.583-5.416a1.627,1.627,0,0,0-1.625,1.625,0.542,0.542,0,1,1-1.083,0,2.712,2.712,0,0,1,2.708-2.709A0.542,0.542,0,1,1,220.875,69.249Zm17.875,19.5H227.917V77.916H238.75V88.749Zm-5.417-1.083A4.333,4.333,0,1,0,229,83.333,4.338,4.338,0,0,0,233.333,87.667Zm0-6.5a0.542,0.542,0,1,1,0,1.083,1.085,1.085,0,0,0-1.083,1.084,0.542,0.542,0,1,1-1.083,0A2.168,2.168,0,0,1,233.333,81.166Z" transform="translate(-216 -66)"/>
  </g>
  <g style="fill:#ffffff;" >
		<path d="M612,116.258c-22.525,9.981-46.694,16.75-72.088,19.772c25.929-15.527,45.777-40.155,55.184-69.411
			c-24.322,14.379-51.169,24.82-79.775,30.48c-22.907-24.437-55.49-39.658-91.63-39.658c-69.334,0-125.551,56.217-125.551,125.513
			c0,9.828,1.109,19.427,3.251,28.606C197.065,206.32,104.556,156.337,42.641,80.386c-10.823,18.51-16.98,40.078-16.98,63.101
			c0,43.559,22.181,81.993,55.835,104.479c-20.575-0.688-39.926-6.348-56.867-15.756v1.568c0,60.806,43.291,111.554,100.693,123.104
			c-10.517,2.83-21.607,4.398-33.08,4.398c-8.107,0-15.947-0.803-23.634-2.333c15.985,49.907,62.336,86.199,117.253,87.194
			c-42.947,33.654-97.099,53.655-155.916,53.655c-10.134,0-20.116-0.612-29.944-1.721c55.567,35.681,121.536,56.485,192.438,56.485
			c230.948,0,357.188-191.291,357.188-357.188l-0.421-16.253C573.872,163.526,595.211,141.422,612,116.258z"/>
	</g>
</svg>
